<?xml version="1.0" encoding="UTF-8" standalone="no"?>
<!-- Generator: Adobe Illustrator 15.0.2, SVG Export Plug-In . SVG Version: 6.00 Build 0)  -->

<svg
   xmlns:dc="http://purl.org/dc/elements/1.1/"
   xmlns:cc="http://creativecommons.org/ns#"
   xmlns:rdf="http://www.w3.org/1999/02/22-rdf-syntax-ns#"
   xmlns:svg="http://www.w3.org/2000/svg"
   xmlns="http://www.w3.org/2000/svg"
   xmlns:sodipodi="http://sodipodi.sourceforge.net/DTD/sodipodi-0.dtd"
   xmlns:inkscape="http://www.inkscape.org/namespaces/inkscape"
   version="1.1"
   id="layer_x5F_www.ABC-color.com"
   x="0px"
   y="0px"
   width="788.47601"
   height="399.86322"
   viewBox="0 0 788.47601 399.86322"
   enable-background="new 0 0 822 567"
   xml:space="preserve"
   inkscape:version="0.91 r13725"
   sodipodi:docname="car-01b.svg"><metadata
     id="metadata5358"><rdf:RDF><cc:Work
         rdf:about=""><dc:format>image/svg+xml</dc:format><dc:type
           rdf:resource="http://purl.org/dc/dcmitype/StillImage" /><dc:title /></cc:Work></rdf:RDF></metadata><defs
     id="defs5356" /><sodipodi:namedview
     pagecolor="#ffffff"
     bordercolor="#666666"
     borderopacity="1"
     objecttolerance="10"
     gridtolerance="10"
     guidetolerance="10"
     inkscape:pageopacity="0"
     inkscape:pageshadow="2"
     inkscape:window-width="1366"
     inkscape:window-height="723"
     id="namedview5354"
     showgrid="false"
     inkscape:zoom="0.85644769"
     inkscape:cx="106.74205"
     inkscape:cy="204.50058"
     inkscape:window-x="0"
     inkscape:window-y="0"
     inkscape:window-maximized="1"
     inkscape:current-layer="layer_x5F_www.ABC-color.com"
     fit-margin-top="0"
     fit-margin-left="0"
     fit-margin-right="0"
     fit-margin-bottom="0" /><path
     stroke-miterlimit="10"
     d="m 777.575,295.16265 c 0.4,-0.6 1.2,-0.6 2.1,-0.3 0,0 2,8.5 -2.8,13.4 0,0 -2.1,-0.9 -2.2,-2 -0.4,-3.3 1.6,-9.1 2.9,-11.1 z"
     id="path5234"
     inkscape:connector-curvature="0"
     style="fill:none;stroke:#00ff00;stroke-miterlimit:10" /><path
     stroke-miterlimit="10"
     d="m 777.575,104.56265 c -1.3,-2 -3.3,-7.800002 -2.8,-11.100002 0.1,-0.9 2.2,-2 2.2,-2 0,0 4.5,5.7 3,13.300002 -1,0.4 -2,0.5 -2.4,-0.2 z"
     id="path5236"
     inkscape:connector-curvature="0"
     style="fill:none;stroke:#00ff00;stroke-miterlimit:10" /><path
     stroke-miterlimit="10"
     d="m 778.475,198.56265 0,2.5 c 0,12.3 -1.2,33.7 -1.2,33.7 l -4,1.699 0,-0.1 c 0,0 0.899,-25.4 0.899,-35.7 l 0,-2 c 0,-10.2 -0.899,-35.5 -0.899,-35.5 l 0.1,-0.2 3.9,1.7 c 0,0.201 1.2,21.601 1.2,33.901 z"
     id="path5238"
     inkscape:connector-curvature="0"
     style="fill:none;stroke:#00ff00;stroke-miterlimit:10" /><path
     stroke-miterlimit="10"
     d="m 778.475,201.16265 0,-2.5 c 0,-12.3 -1.2,-33.7 -1.2,-33.7 0.3,-1.8 -4.8,-32.1 -5.5,-35.8 0,-0.1 0,-0.2 0,-0.3 0,-0.1 0,-0.1 0,-0.1 -1.3,-8 -6.101,-45.000002 -20.2,-65.300002 -0.8,-1.1 -1.6,-2.2 -2.4,-3.3 -11.6,-14.2 -23.399,-19 -30.6,-20.5 0.2,-2.1 -4,-5.8 -4,-5.8 0,0 32.3,1.5 46,22.3 13.8,20.8 16.6,34.9 16.6,34.9 l 0.101,0.4 c -0.101,0 -0.2,0 -0.2,0 0,0 -2.101,1.1 -2.2,2 -0.5,3.3 1.5,9.200002 2.8,11.100002 0.4,0.7 1.4,0.6 2.4,0.2 l 0,0.1 5.8,32 -0.9,6.3 c 0,0 2.7,40.2 3,56.7 0,0.9 0,1.9 0,2.9 0,17.8 -3,53.699 -3,53.699 l 0.9,6.301 -6.1,32 c -0.9,-0.301 -1.7,-0.301 -2.101,0.3 -1.3,2 -3.3,7.8 -2.8,11.1 0.1,1.101 2.2,2 2.2,2 0.1,0 0.2,0 0.3,0.101 l -0.2,0.5 c 0,0 -2.8,14 -16.6,34.8 -13.7,20.899 -46,22.3 -46,22.3 l 3.2,-5.6 c 7.2,-1.2 19.399,-6 31.399,-20.7 0.801,-1 1.7,-2.101 2.4,-3.3 14.1,-20.4 18.9,-57.4 20.2,-65.301 2.3,-3.399 5.5,-36.1 5.5,-36.1 0,0 1.201,-21.4 1.201,-33.7 z"
     id="path5240"
     inkscape:connector-curvature="0"
     style="fill:none;stroke:#00ff00;stroke-miterlimit:10" /><path
     stroke-miterlimit="10"
     d="m 771.875,129.16265 c 0,-0.1 0,-0.2 0,-0.3 -0.1,0.1 -0.1,0.2 0,0.3 z"
     id="path5242"
     inkscape:connector-curvature="0"
     style="fill:none;stroke:#00ff00;stroke-miterlimit:10" /><path
     stroke-miterlimit="10"
     d="m 771.775,128.86265 0,0 c 0,-0.1 0,0 0,0 z"
     id="path5244"
     inkscape:connector-curvature="0"
     style="fill:none;stroke:#00ff00;stroke-miterlimit:10" /><path
     stroke-miterlimit="10"
     d="m 767.575,255.86265 c 0,0 5.8,6.6 4.3,15 -1.3,8 -6.1,45 -20.2,65.3 l -0.5,-0.3 -10.399,-0.4 c 2.699,-3.399 5,-7.199 7.3,-12.1 5.399,-12.1 8.598,-15 19.499,-67.5 z"
     id="path5246"
     inkscape:connector-curvature="0"
     style="fill:none;stroke:#00ff00;stroke-miterlimit:10" /><path
     stroke-miterlimit="10"
     d="m 771.875,129.16265 c 1.3,8.3 -4.3,14.8 -4.3,14.8 -10.8,-52.700002 -14,-55.500002 -19.6,-67.700002 -2.301,-4.9 -4.601,-8.7 -7.4,-12.1 l 10.5,-0.4 0.5,-0.4 c 14.1,20.4 18.9,57.400002 20.2,65.300002 l 0,0.1 c 0,0.2 0.1,0.3 0.1,0.4 z"
     id="path5248"
     inkscape:connector-curvature="0"
     style="fill:none;stroke:#00ff00;stroke-miterlimit:10" /><path
     stroke-miterlimit="10"
     d="m 712.775,360.36265 c 0,0 -0.601,-2.9 11.3,-10.7 7.2,-4.8 12.4,-8.899 16.5,-14.1 l 10.4,0.4 0.5,0.301 c -0.801,1.1 -1.601,2.199 -2.4,3.3 -12,14.7 -24.2,19.5 -31.4,20.7 -2.3,0.399 -4.1,0.5 -5.2,0.3 l 0.3,-0.201 z"
     id="path5250"
     inkscape:connector-curvature="0"
     style="fill:none;stroke:#00ff00;stroke-miterlimit:10" /><path
     stroke-miterlimit="10"
     d="m 712.575,39.162648 c 1.2,-0.1 3.3,0 5.9,0.5 7.3,1.5 19,6.3 30.6,20.5 0.8,1 1.7,2.1 2.4,3.3 l -0.5,0.4 -10.5,0.4 c -4.101,-5.1 -9.301,-9.1 -16.4,-13.9 -12,-8 -11.3,-10.8 -11.3,-10.8 l -0.2,-0.4 z"
     id="path5252"
     inkscape:connector-curvature="0"
     style="fill:none;stroke:#00ff00;stroke-miterlimit:10" /><path
     id="www.ABC-color.com"
     stroke-miterlimit="10"
     d="m 443.375,314.86265 c 9.4,4.1 74.4,31 102.3,30.1 0,0 18.7,-27.699 23.301,-50 2.5,-11.6 11,-45.699 11.199,-88.8 l 0,-12.6 c -0.3,-43.2 -8.8,-77.3 -11.199,-88.8 -4.601,-22.400002 -23.301,-50.100002 -23.301,-50.100002 -27.9,-0.8 -92.9,26 -102.3,30.2 -9.3,4.1 -4.899,13.9 -4.899,13.9 10.8,28.100002 11.6,95.500002 11.6,95.500002 l 0,11.1 c 0,0 -0.8,67.8 -11.6,96.1 -10e-4,0.2 -4.302,9.2 4.899,13.4 z m 151,-117.2 0,4.4 c 0,37.899 -9.8,93.1 -14.399,104.5 -7,16.8 -12,25.7 -12,25.7 0,0 -10.302,17.2 -30.601,17.5 -20.5,0.199 -87.3,-27.4 -97.3,-31.7 -6.6,-2.9 -7,-8.4 -6.5,-11.8 0.3,-1.7 0.7,-2.9 0.7,-2.9 11.6,-30.1 12.899,-102 12.899,-102 l 0,-2.8 c 0,0 -1.3,-71.8 -12.899,-101.900002 0,0 -0.5,-1.3 -0.7,-3.1 -0.4,-3.4 0.1,-8.9 6.5,-11.8 10,-4.4 76.8,-31.9 97.3,-31.6 20.3,0.1 30.601,17.3 30.601,17.3 0,0 5,8.9 12,25.7 4.599,11.400002 14.399,66.600002 14.399,104.500002 z"
     inkscape:connector-curvature="0"
     style="fill:none;stroke:#00ff00;stroke-miterlimit:10" /><path
     stroke-miterlimit="10"
     d="m 545.775,54.762648 c 0,0 18.7,27.7 23.3,50.100002 2.5,11.4 11,45.6 11.2,88.8 l 0,12.6 c -0.3,43 -8.8,77.199 -11.2,88.8 -4.6,22.3 -23.3,50 -23.3,50 -27.9,0.899 -92.9,-26 -102.3,-30.101 -9.301,-4.199 -4.9,-13.3 -4.9,-13.3 10.8,-28.3 11.6,-96.1 11.6,-96.1 l 0,-11.1 c 0,0 -0.8,-67.4 -11.6,-95.500002 0,0 -4.3,-9.8 4.9,-13.9 9.3,-4.299 74.3,-31.099 102.3,-30.299 z"
     id="path5255"
     inkscape:connector-curvature="0"
     style="fill:none;stroke:#00ff00;stroke-miterlimit:10" /><path
     stroke-miterlimit="10"
     d="m 506.475,39.862648 c 0,0 0.5,0.8 -0.101,1.6 l -0.1,-0.2 c 0,0 -0.5,0.6 -1.8,1.1 l 0,0 c -1.5,0.3 -4.101,0.3 -8.4,-0.5 0,0 -3.7,-0.3 -4.9,-4.7 -0.399,-1.4 -1.3,-5.5 -2.399,-10.5 -2.3,-10.7 -5.4,-25.4000003 -5.4,-25.4000003 0,0 6.2,-3 9.9,2.9 2.899,4.5 6.399,11.2000003 9.7,22.6000003 1.3,3.7 2.4,8.1 3.5,13.1 z"
     id="path5257"
     inkscape:connector-curvature="0"
     style="fill:none;stroke:#00ff00;stroke-miterlimit:10" /><path
     stroke-miterlimit="10"
     d="m 506.375,358.36265 c 0.601,0.7 0.101,1.5 0.101,1.5 -1.101,5 -2.2,9.4 -3.4,13.2 -3.4,11.399 -6.9,18.1 -9.8,22.6 -3.7,6 -9.9,2.9 -9.9,2.9 0,0 3.101,-14.7 5.4,-25.4 1.1,-5 2,-9.1 2.399,-10.399 1.2,-4.5 4.9,-4.7 4.9,-4.7 4.5,-0.8 7.1,-0.9 8.6,-0.601 l 0,0 c 1.101,0.5 1.5,1 1.5,1 l 0.2,-0.1 z"
     id="path5259"
     inkscape:connector-curvature="0"
     style="fill:none;stroke:#00ff00;stroke-miterlimit:10" /><path
     stroke-miterlimit="10"
     d="m 497.375,351.76265 c 1,0 2.2,-0.101 3.3,-0.2 1,0.1 2,0.3 3.101,0.5 0.899,0.1 1.6,0.3 2.2,0.6 0.899,0.5 1.8,1.4 2.3,2.601 l -1.9,3.1 c -0.3,-0.3 -0.8,-0.6 -1.7,-0.8 l 0,0 c -1.5,-0.601 -4.2,-1 -8.6,0.6 -0.001,-0.101 -2.201,-6.101 1.299,-6.401 z"
     id="path5261"
     inkscape:connector-curvature="0"
     style="fill:none;stroke:#00ff00;stroke-miterlimit:10" /><path
     stroke-miterlimit="10"
     d="m 497.375,47.962648 c -3.5,-0.3 -1.3,-6.2 -1.3,-6.2 4.2,1.4 6.8,1.1 8.4,0.5 l 0,0 c 1,-0.2 1.6,-0.5 1.899,-0.9 l 1.9,3.2 c -0.5,1 -1.2,1.8 -2,2.3 -0.601,0.3 -1.4,0.5 -2.5,0.7 -1.2,0.2 -2.4,0.4 -3.4,0.5 -1.099,0.1 -2.099,0 -2.999,-0.1 z"
     id="path5263"
     inkscape:connector-curvature="0"
     style="fill:none;stroke:#00ff00;stroke-miterlimit:10" /><path
     stroke-miterlimit="10"
     d="m 495.174,45.462648 c 0,2.9 2.2,3.1 5.2,2.8 2.101,0.1 4.2,-0.1 5.9,-1.2 2.1,-0.9 2,-2.3 2,-2.3 l 4.399,1.8 c -3.3,2.8 -23.3,10.6 -23.899,10.8 l 1.7,-4.5 c 2.001,-4 4.7,-7.4 4.7,-7.4 z"
     id="path5265"
     inkscape:connector-curvature="0"
     style="fill:none;stroke:#00ff00;stroke-miterlimit:10" /><path
     stroke-miterlimit="10"
     d="m 354.075,89.662648 c 0.5,-12.6 17.1,-39 17.1,-39 0,0 0.101,0 0.301,0 42.199,0 120,-0.4 120,-0.4 l -1,2.6 c -0.7,1.5 -1.4,3 -1.7,4.5 0,0 -39.101,16.5 -58.8,22.6 -19.802,5.9 -75.901,9.7 -75.901,9.7 z"
     id="path5267"
     inkscape:connector-curvature="0"
     style="fill:none;stroke:#00ff00;stroke-miterlimit:10" /><path
     stroke-miterlimit="10"
     d="m 495.174,354.46265 c 0,0 -2.699,-3.399 -4.6,-7.3 0,0 0,0 0,-0.1 l -1.8,-4.601 c 0.6,0.2 20.6,8.2 23.899,11 l -4.398,1.801 c 0,0 0.2,-1.601 -2.3,-2.601 -1.5,-0.899 -3.4,-1.1 -5.301,-1 -3.199,-0.499 -5.5,-0.199 -5.5,2.801 z"
     id="path5269"
     inkscape:connector-curvature="0"
     style="fill:none;stroke:#00ff00;stroke-miterlimit:10" /><path
     stroke-miterlimit="10"
     d="m 429.875,319.86265 c 19.7,6 58.8,22.6 58.8,22.6 0.4,1.5 1,3.101 1.8,4.601 0,0 0,0 0,0.1 l 0.9,2.3 c -2.6,-0.199 -20.2,-0.5 -119.9,-0.199 -0.1,-0.2 -0.3,-0.2 -0.3,-0.2 0,0 -16.6,-26.3 -17.1,-39 0,-0.002 56.099,3.798 75.8,9.798 z"
     id="path5271"
     inkscape:connector-curvature="0"
     style="fill:none;stroke:#00ff00;stroke-miterlimit:10" /><path
     stroke-miterlimit="10"
     d="m 267.175,104.56265 c 46.999,1.3 134.8,0.1 165.899,-11.000002 l 0.4,-0.1 c 0.199,1.8 0.699,3.1 0.699,3.1 11.602,30.100002 12.902,101.900002 12.902,101.900002 l 0,2.801 c 0,0 -1.3,71.899 -12.9,102 0,0 -0.5,1.199 -0.699,2.899 l -0.4,-0.1 c -31.1,-11 -118.9,-12.3 -165.899,-11 -22.801,0.8 -38.4,3.2 -38.4,3.2 -0.6,-3.601 -4,-23.801 -5.5,-56.9 -1.2,-22.4 -0.6,-40.6 -0.6,-40.6 l 0,-2 c 0,0 -0.5,-18.2 0.6,-40.601 1.5,-33.1 4.9,-53.3 5.5,-56.9 0.098,0.101 15.598,2.701 38.398,3.301 z"
     id="path5273"
     inkscape:connector-curvature="0"
     style="fill:none;stroke:#00ff00;stroke-miterlimit:10" /><path
     stroke-miterlimit="10"
     d="m 403.275,31.462648 c 1,0 1.8,1.1 1.8,2.3 0,1.2 -0.8,2.3 -1.8,2.3 l -27.8,0 c -0.9,0 -1.7,-1.1 -1.7,-2.3 0,-0.6 0.2,-1.2 0.5,-1.6 0.3,-0.4 0.7,-0.7 1.2,-0.7 l 27.8,0 z"
     id="path5275"
     inkscape:connector-curvature="0"
     style="fill:none;stroke:#00ff00;stroke-miterlimit:10" /><path
     id="ABC-color.com"
     stroke-miterlimit="10"
     d="m 405.075,366.06265 c 0,1.2 -0.8,2.3 -1.8,2.3 l -27.8,0 c -0.5,0 -0.9,-0.3 -1.2,-0.7 -0.3,-0.399 -0.5,-1 -0.5,-1.6 0,-1.2 0.8,-2.101 1.7,-2.101 l 27.8,0 c 1,10e-4 1.8,0.901 1.8,2.101 z"
     inkscape:connector-curvature="0"
     style="fill:none;stroke:#00ff00;stroke-miterlimit:10" /><path
     stroke-miterlimit="10"
     d="m 369.775,49.062648 c 2.8,1.6 1.399,1.6 1.399,1.6 0,0 -16.6,26.3 -17.1,39 l -17.601,0.6 0,-0.1 c 0,-0.1 0,-0.1 0,-0.2 0.101,-0.6 0.4,-1.9 0.7,-3.6 0.101,-0.4 0.2,-0.7 0.2,-1.1 0,0 0,0 0,-0.1 0.101,-0.3 0.101,-0.7 0.2,-1 0.1,-0.4 0.1,-0.8 0.2,-1.2 2.1,-10.4 5.899,-28.6 6.899,-32.2 0,-0.1 0,-0.1 0.101,-0.2 0,-0.1 0.1,-0.2 0.1,-0.3 0,0 -0.5,-2.9 4.3,-2.9 4.902,0 17.802,0 20.602,1.7 z"
     id="path5278"
     inkscape:connector-curvature="0"
     style="fill:none;stroke:#00ff00;stroke-miterlimit:10" /><path
     stroke-miterlimit="10"
     d="m 336.475,90.262648 c -31.801,-0.2 -58.8,-0.2 -92.8,-7.8 -3.601,-5.4 -12.101,-17.2 -26.4,-29.3 23.7,-0.8 121.6,-3.5 127.7,-2.9 0,0.1 -0.101,0.2 -0.101,0.3 0,0.1 0,0.1 -0.1,0.2 -1.101,3.6 -4.8,21.8 -6.9,32.2 -0.1,0.4 -0.2,0.8 -0.2,1.2 -0.1,0.3 -0.1,0.7 -0.2,1 0,0 0,0 0,0.1 -0.1,0.4 -0.199,0.8 -0.199,1.1 -0.301,1.7 -0.601,3 -0.7,3.6 0,0.1 0,0.2 0,0.2 -0.1,0 -0.1,0.1 -0.1,0.1 z"
     id="path5280"
     inkscape:connector-curvature="0"
     style="fill:none;stroke:#00ff00;stroke-miterlimit:10" /><path
     stroke-miterlimit="10"
     d="m 344.775,348.86265 c 0.1,0.3 0.2,0.5 0.2,0.6 -6,0.601 -104,-2.1 -127.7,-2.699 14.3,-12.301 22.8,-24.101 26.4,-29.5 34,-7.5 60.999,-7.7 92.8,-7.801 l 0,0.101 c 0,0.1 0,0.2 0.1,0.3 l 0,0 c 0,0.1 0,0.1 0,0.2 0,0.1 0,0.2 0.1,0.3 0,0.1 0,0.2 0.101,0.4 0,0.1 0,0.199 0.1,0.399 0,0.101 0,0.2 0.101,0.3 0,0.2 0.1,0.4 0.1,0.7 0,0.101 0,0.2 0.1,0.3 0.101,0.5 0.2,1.101 0.301,1.7 l 0,0 c 0.199,0.8 0.3,1.601 0.5,2.601 0.399,1.899 0.8,4.1 1.3,6.399 0.1,0.3 0.1,0.601 0.2,0.9 0.1,0.6 0.199,1.2 0.399,1.8 0.2,0.6 0.3,1.2 0.4,1.8 1.8,8.601 3.7,17.8 4.6,21 -0.203,-0.1 -0.203,0.1 -0.102,0.2 z"
     id="path5282"
     inkscape:connector-curvature="0"
     style="fill:none;stroke:#00ff00;stroke-miterlimit:10" /><path
     stroke-miterlimit="10"
     d="m 336.475,309.46265 17.6,0.601 c 0.5,12.6 17.1,39 17.1,39 0,0 0.101,0 0.301,0.2 0,0 0,0 0.1,0 0.1,0.199 -0.2,0.6 -1.8,1.5 -2.8,1.699 -15.7,1.699 -20.601,1.699 -4.8,0 -4.3,-2.899 -4.3,-2.899 0,-0.101 -0.1,-0.4 -0.2,-0.601 0,-0.1 -0.1,-0.199 -0.1,-0.399 -0.8,-3.2 -2.8,-12.4 -4.6,-21 -0.101,-0.601 -0.301,-1.2 -0.4,-1.8 -0.099,-0.6 -0.2,-1.2 -0.4,-1.801 -0.1,-0.299 -0.1,-0.6 -0.199,-0.899 -0.5,-2.3 -0.9,-4.5 -1.301,-6.399 -0.199,-0.9 -0.399,-1.801 -0.5,-2.601 l 0,0 c -0.1,-0.601 -0.199,-1.2 -0.3,-1.7 0,-0.1 0,-0.2 -0.1,-0.3 0,-0.2 -0.101,-0.5 -0.101,-0.7 0,-0.1 0,-0.2 -0.1,-0.3 0,-0.101 0,-0.3 -0.1,-0.399 0,-0.101 0,-0.201 -0.101,-0.4 0,-0.1 0,-0.2 -0.1,-0.301 0,-0.1 0,-0.199 0,-0.199 l 0,0 c 0,-0.1 0,-0.2 -0.101,-0.301 0.303,0.099 0.303,-10e-4 0.303,-10e-4 z"
     id="path5284"
     inkscape:connector-curvature="0"
     style="fill:none;stroke:#00ff00;stroke-miterlimit:10" /><path
     stroke-miterlimit="10"
     d="m 243.075,33.862648 c 1,0 1.8,0.9 1.8,2.3 0,1.2 -0.8,2.1 -1.8,2.1 l -27.7,0 c -1,0 -1.8,-0.9 -1.8,-2.1 0,-0.7 0.2,-1.3 0.5,-1.6 0.3,-0.4 0.8,-0.6 1.3,-0.6 l 27.7,0 0,-0.1 z"
     id="path5286"
     inkscape:connector-curvature="0"
     style="fill:none;stroke:#00ff00;stroke-miterlimit:10" /><path
     stroke-miterlimit="10"
     d="m 243.075,361.56265 c 1,0 1.8,1.1 1.8,2.3 0,1.2 -0.8,2.1 -1.8,2.1 l -27.7,0 c -0.5,0 -1,-0.199 -1.3,-0.6 -0.3,-0.401 -0.5,-0.9 -0.5,-1.5 0,-1.2 0.8,-2.3 1.8,-2.3 l 27.7,0 z"
     id="path5288"
     inkscape:connector-curvature="0"
     style="fill:none;stroke:#00ff00;stroke-miterlimit:10" /><path
     stroke-miterlimit="10"
     d="m 239.075,318.16265 c -14.4,21.3 -19.8,21.7 -27.7,28.6 -4.2,0.1 -25.7,-0.8 -31.3,-0.9 -5.899,-0.3 -12.399,-3.2 -12.399,-3.2 8.6,-7.1 31.899,-12.8 31.899,-12.8 14.6,-4.9 27.4,-8.8 39.5,-11.7 z"
     id="path5290"
     inkscape:connector-curvature="0"
     style="fill:none;stroke:#00ff00;stroke-miterlimit:10" /><path
     stroke-miterlimit="10"
     d="m 219.275,91.662648 c 8.9,2.4 10.2,6.2 9.5,9.800002 -0.6,3.6 -4,23.8 -5.5,56.9 -1.2,22.4 -0.6,40.6 -0.6,40.6 l 0,2 c 0,0 -0.5,18.2 0.6,40.601 1.5,33.1 4.9,53.3 5.5,56.899 0.6,3.601 -0.6,7.5 -9.5,9.9 -9.8,2.6 -84.5,21.8 -100.5,19.3 -16.1,-2.7 -20.5,-11.899 -23.9,-18.8 -3.3,-7 -10.399,-29.5 -10.8,-108.8 0.4,-79.2 7.5,-101.800002 10.8,-108.800002 3.5,-6.9 7.9,-16.1 23.9,-18.7 16.1,-2.9 90.7,16.3 100.5,19.1 z M 97.675,306.56265 c 3.2,6.6 7.4,17.3 22.9,17.9 16.101,0.7 89.5,-17.1 99,-19.6 7.2,-1.8 5.9,-7.1 5.9,-7.1 0,0 -3.7,-23.801 -5.3,-55.301 -1,-21.5 -0.9,-36 -0.9,-36 l -0.3,-9.599 c 0,0 0.2,-18.1 1.2,-39.6 1.5,-31.4 5,-54.1 5,-54.1 0,0 2.699,-6.100002 -5.7,-8.300002 -9.4,-2.6 -83.2,-19.9 -98.601,-18.3 -15.399,1.7 -20.1,10 -23.3,16.6 -3.1,6.8 -9.899,28.400002 -10.3,104.601002 l 0,4.399 c 0.501,76.2 7.301,97.8 10.401,104.4 z"
     id="path5292"
     inkscape:connector-curvature="0"
     style="fill:none;stroke:#00ff00;stroke-miterlimit:10" /><path
     stroke-miterlimit="10"
     d="m 239.075,81.562648 c -12.1,-2.9 -25,-6.6 -39.399,-11.7 0,0 -23.301,-5.7 -31.9,-12.8 0,0 6.4,-2.9 12.4,-3 5.5,-0.3 27,-1.2 31.3,-0.9 4.699,3.3 17.199,12.9 27.599,28.4 z"
     id="path5294"
     inkscape:connector-curvature="0"
     style="fill:none;stroke:#00ff00;stroke-miterlimit:10" /><path
     stroke-miterlimit="10"
     d="m 120.975,76.562648 c 15.399,-1.7 89.2,15.7 98.6,18.3 8.4,2.3 5.7,8.300002 5.7,8.300002 0,0 -3.5,22.7 -5,54.1 -1,21.5 -1.2,39.6 -1.2,39.6 l 0.3,9.7 c 0,0 -0.1,14.5 0.9,36 1.5,31.6 5.3,55.3 5.3,55.3 0,0 1.3,5.3 -5.899,7.1 -9.4,2.4 -82.9,20.2 -99,19.601 -15.5,-0.7 -19.7,-11.3 -22.9,-17.9 -3.1,-6.6 -9.9,-28.3 -10.3,-104.5 l 0,-4.401 c 0.399,-76.101 7.2,-97.800002 10.3,-104.601002 3.099,-6.699 7.799,-14.899 23.199,-16.599 z"
     id="path5296"
     inkscape:connector-curvature="0"
     style="fill:none;stroke:#00ff00;stroke-miterlimit:10" /><path
     stroke-miterlimit="10"
     d="m 217.275,53.162648 c 14.3,12.2 22.8,23.9 26.4,29.3 -1.5,-0.3 -3,-0.6 -4.5,-0.9 -10.4,-15.5 -22.9,-25.1 -27.7,-28.4 0.399,0 0.6,0 0.8,0 0,0 1.7,0 5,0 z"
     id="path5298"
     inkscape:connector-curvature="0"
     style="fill:none;stroke:#00ff00;stroke-miterlimit:10" /><path
     stroke-miterlimit="10"
     d="m 375.475,368.26265 27.8,0 c 1,0 1.8,-1.101 1.8,-2.301 0,-1.199 -0.8,-2.1 -1.8,-2.1 l -27.8,0 c -0.9,0 -1.7,0.9 -1.7,2.1 0,0.601 0.2,1.2 0.5,1.601 0.3,0.4 0.7,0.7 1.2,0.7 z m -161.3,-3 c 0.3,0.399 0.8,0.6 1.3,0.6 l 27.7,0 c 1,0 1.8,-0.9 1.8,-2.1 0,-1.2 -0.8,-2.301 -1.8,-2.301 l -27.7,0 c -1,0 -1.8,1.101 -1.8,2.301 0,0.6 0.2,1.1 0.5,1.5 z m 159.6,-331.600002 c 0,1.2 0.8,2.3 1.7,2.3 l 27.8,0 c 1,0 1.8,-1.1 1.8,-2.3 0,-1.2 -0.8,-2.3 -1.8,-2.3 l -27.8,0 c -0.5,0 -0.9,0.3 -1.2,0.7 -0.3,0.5 -0.5,1 -0.5,1.6 z m -235.2,14.3 c 8.4,-1.2 8,-3.5 8,-3.5 0,0 0,-2.7 0,-5.6 0,-2.9 -5.1,-2.7 -5.1,-2.7 -12.101,0.1 -20.601,2.4 -21.101,3.3 -0.399,1 -0.3,1.6 -0.3,4.8 0,3.3 4.5,4.1 4.5,4.1 0,0 5.701,0.7 14.001,-0.4 z m -54.6,151.900002 c 0.399,79.4 7.5,101.8 10.8,108.8 3.5,6.9 7.9,16.101 23.9,18.8 16.1,2.5 90.8,-16.699 100.5,-19.3 8.899,-2.399 10.199,-6.3 9.5,-9.899 0,0 15.6,-2.4 38.399,-3.2 47,-1.3 134.8,0 165.9,11 l 0.399,0.1 c -0.5,3.4 0,8.9 6.5,11.8 10,4.4 76.8,31.9 97.3,31.7 20.301,-0.3 30.601,-17.5 30.601,-17.5 0,0 5,-8.899 12,-25.7 4.6,-11.399 14.399,-66.6 14.399,-104.5 l 0,-4.401 c 0,-37.9 -9.8,-93.1 -14.399,-104.600002 -7,-16.9 -12,-25.7 -12,-25.7 0,0 -10.3,-17.1 -30.601,-17.3 -20.5,-0.3 -87.3,27.2 -97.3,31.6 -6.5,2.9 -7,8.4 -6.5,11.8 l -0.398,0.1 c -31.101,11.100002 -118.9,12.300002 -165.9,11.000002 -22.8,-0.6 -38.399,-3.2 -38.399,-3.2 0.6,-3.600002 -0.601,-7.400002 -9.5,-9.800002 -9.801,-2.7 -84.5,-22 -100.5,-19.3 -16.101,2.6 -20.5,11.7 -23.9,18.7 -3.301,7.2 -10.301,29.800002 -10.801,109.000002 z m 133.3,146.9 c 23.7,0.6 121.6,3.3 127.7,2.699 0,0 -0.5,2.9 4.3,2.9 4.899,0 17.8,0 20.6,-1.7 1.601,-0.899 1.8,-1.3 1.8,-1.5 99.7,-0.3 117.301,0 119.9,0.2 l 0,0.1 c 0,0 0.8,0 0,-0.1 l -0.9,-2.3 c 2,3.899 4.601,7.3 4.601,7.3 0,-3 2.399,-3.3 5.5,-2.9 -1.2,0 -2.3,0.101 -3.3,0.2 -3.5,0.3 -1.301,6.3 -1.301,6.3 0,0 -3.699,0.101 -4.899,4.7 -0.4,1.4 -1.3,5.5 -2.4,10.4 l -0.3,-0.101 -97.7,0 c 0,0 -230.699,-3.8 -243.5,-3.8 -12.899,0 -43.899,-5.399 -43.899,-5.399 0,0 -26.502,-3.799 -44.902,-8.399 0,0 1.3,-3.9 -0.5,-5 -1.7,-1 -7.899,-2.9 -14.6,-6 -6.8,-3.3 -13.5,-9.6 -17.5,-15.2 -2.4,-5 -4.5,-10.7 -6.2,-17.2 -5.4,-21.5 -6.7,-50.699 -6.8,-51.8 -0.5,-5.399 2.6,-7.8 2.6,-7.8 l 0.1,0 c 0,-0.3 0,-0.5 0,-0.5 l -1.4,-49.9 0,-4.7 1.4,-49.8 c 0,0 0,-0.2 0,-0.4 l -0.1,0 c 0,0 -3.1,-2.6 -2.6,-8 0.1,-1.1 1.399,-30.1 6.8,-51.600002 1.7,-6.6 3.7,-12.3 6.2,-17.3 4,-5.6 10.7,-11.9 17.5,-15 6.7,-3.3 12.899,-5.1 14.6,-6.2 1.8,-0.9 0.5,-5 0.5,-5 18.4,-4.7 44.9,-8.4 44.9,-8.4 0,0 31,-5.3 43.899,-5.3 12.9,0 90.801,-2 96.9,-2 6.2,0 146.6,-2 146.6,-2 l 98.101,0 c 1.1,5 2,9.1 2.399,10.5 1.2,4.4 4.9,4.7 4.9,4.7 0,0 -2.2,5.9 1.3,6.2 0.9,0.1 2,0.2 3,0.2 -3,0.4 -5.2,0.1 -5.2,-2.8 0,0 -2.7,3.4 -4.7,7.4 l 1,-2.6 c 0,0 -77.8,0.4 -120,0.4 -0.1,0 -0.3,0 -0.3,0 0,0 1.4,0 -1.399,-1.6 -2.801,-1.7 -15.7,-1.7 -20.601,-1.7 -4.8,0 -4.3,2.9 -4.3,2.9 -6,-0.6 -104,2.1 -127.7,2.9 -3.199,0 -5,0 -5,0 -0.1,0 -0.399,0 -0.8,0 -4.2,-0.3 -25.7,0.6 -31.3,0.9 -5.9,0.1 -12.4,3 -12.4,3 8.601,7.1 31.9,12.8 31.9,12.8 14.4,5.1 27.3,8.9 39.4,11.7 1.5,0.3 3,0.6 4.5,0.9 34,7.7 60.999,7.7 92.8,7.8 l 17.6,-0.6 c 0,0 56.1,-3.8 75.8,-9.8 19.7,-6 58.8,-22.6 58.8,-22.6 l 0,0 c 0.601,-0.2 20.601,-8 23.9,-10.8 l -4.4,-1.8 -1.899,-3.2 c 0.6,-0.7 0.1,-1.6 0.1,-1.6 -1.1,-5 -2.2,-9.4 -3.399,-13.2 l 60,0 c 0,0 128,-0.5 151.5,7.2 0,0 4.199,3.8 4,5.8 -2.7,-0.5 -4.7,-0.6 -5.9,-0.5 l 0.3,0.3 c 0,0 -0.6,2.9 11.3,10.8 7.2,4.8 12.3,8.8 16.4,13.9 2.8,3.4 5.1,7.3 7.4,12.1 5.5,12.2 8.8,15 19.6,67.700002 0,0 5.6,-6.6 4.3,-14.8 0.6,3.7 5.8,33.9 5.5,35.8 l -3.9,-1.7 -0.1,0.2 c 0,0 0.9,25.3 0.9,35.5 l 0,2 c 0,10.2 -0.9,35.7 -0.9,35.7 l 0,0.1 4,-1.7 c 0,0 -3.2,32.7 -5.5,36.101 1.5,-8.4 -4.3,-15 -4.3,-15 -10.8,52.5 -14,55.399 -19.6,67.5 -2.2,4.899 -4.5,8.699 -7.301,12.1 -4.199,5.2 -9.3,9.2 -16.5,14.1 -12,7.801 -11.3,10.7 -11.3,10.7 l -0.3,0.3 c 1.1,0.101 2.9,0.101 5.2,-0.3 l -3.2,5.601 c -23.5,7.8 -151.5,7.199 -151.5,7.199 l -59.9,0 c 1.101,-3.8 2.301,-8.199 3.4,-13.199 0,0 0.5,-0.801 -0.1,-1.5 l 1.899,-3.101 4.4,-1.8 c -3.3,-2.8 -23.3,-10.7 -23.9,-11 l 0,0 c 0,0 -39.3,-16.5 -59,-22.5 -19.7,-6 -75.8,-9.8 -75.8,-9.8 l -17.601,-0.601 c -31.8,0.2 -58.799,0.301 -92.8,7.801 -1.5,0.3 -3,0.6 -4.5,0.899 -12.1,2.8 -25,6.8 -39.399,11.7 0,0 -23.3,5.7 -31.9,12.8 0,0 6.4,2.9 12.4,3.2 5.5,0.2 27,1 31.3,0.9 0.4,-0.2 0.601,-0.2 0.8,-0.2 -0.099,0.1 1.601,0.1 4.901,0.2 z m -3.6,-310.600002 c 0,1.2 0.8,2.1 1.8,2.1 l 27.7,0 c 1,0 1.8,-0.9 1.8,-2.1 0,-1.4 -0.8,-2.3 -1.8,-2.3 l -27.7,0 c -0.5,0 -1,0.2 -1.3,0.6 -0.3,0.4 -0.5,1 -0.5,1.7 z"
     id="path5300"
     inkscape:connector-curvature="0"
     style="fill:none;stroke:#00ff00;stroke-miterlimit:10" /><path
     stroke-miterlimit="10"
     d="m 211.475,346.76265 c 7.899,-6.9 13.3,-7.301 27.7,-28.601 1.5,-0.3 3,-0.6 4.5,-0.899 -3.6,5.4 -12.1,17.2 -26.4,29.5 -3.2,-0.2 -5,-0.2 -5,-0.2 -0.2,0.1 -0.4,0.1 -0.8,0.2 z"
     id="path5302"
     inkscape:connector-curvature="0"
     style="fill:none;stroke:#00ff00;stroke-miterlimit:10" /><path
     stroke-miterlimit="10"
     d="m 146.575,44.562648 c 0,0 0.4,2.3 -8,3.5 -8.399,1.1 -14,0.5 -14,0.5 0,0 -4.5,-0.8 -4.5,-4.1 0,-3.2 -0.1,-3.8 0.3,-4.8 0.5,-0.9 9,-3.2 21.101,-3.3 0,0 5.1,-0.1 5.1,2.7 -0.001,2.8 -0.001,5.5 -0.001,5.5 z"
     id="path5304"
     inkscape:connector-curvature="0"
     style="fill:none;stroke:#00ff00;stroke-miterlimit:10" /><path
     stroke-miterlimit="10"
     d="m 58.375,44.262648 c 0,0 1.301,4.1 -0.5,5 -1.699,1.1 -7.899,2.9 -14.6,6.2 -6.8,3.2 -13.5,9.5 -17.5,15 4.8,-10.1 10.9,-17 17.6,-21.1 3.2,-1.7 8.6,-3.5 15,-5.1 z"
     id="path5306"
     inkscape:connector-curvature="0"
     style="fill:none;stroke:#00ff00;stroke-miterlimit:10" /><path
     stroke-miterlimit="10"
     d="m 57.875,350.56265 c 1.801,1 0.5,5 0.5,5 -6.4,-1.7 -11.8,-3.5 -14.9,-5.1 -6.7,-4.1 -12.9,-11 -17.601,-21.1 4,5.6 10.7,11.9 17.5,15.2 6.701,3.1 12.801,4.9 14.501,6 z"
     id="path5308"
     inkscape:connector-curvature="0"
     style="fill:none;stroke:#00ff00;stroke-miterlimit:10" /><path
     stroke-miterlimit="10"
     d="m 25.875,329.36265 c 4.801,10.1 10.9,17 17.601,21.1 3.1,1.7 8.5,3.5 14.899,5.101 18.4,4.7 44.9,8.399 44.9,8.399 -4,1.7 -8.1,1.7 -8.1,1.7 0,0 -36.3,-4.5 -56.6,-10.4 -20.5,-6 -26.6,-24.2 -26.6,-24.2 -15.3,-37.8 -15.3,-224.3 0,-262.200002 0,0 6.2,-18.2 26.6,-24.1 20.3,-6 56.601,-10.4 56.601,-10.4 0,0 4.1,0 8.1,1.5 0,0 -26.5,3.8 -44.9,8.4 -6.399,1.7 -11.8,3.5 -14.899,5.1 -6.7,4.1 -12.9,11 -17.601,21.1 -2.399,5 -4.5,10.7 -6.199,17.3 -5.4,21.500002 -6.7,50.500002 -6.801,51.600002 -0.5,5.4 2.601,8 2.601,8 l 0.1,0 c 0,0.3 0,0.4 0,0.4 l -1.402,49.8 0,4.7 1.4,49.9 c 0,0 0,0.2 0,0.5 l -0.1,0 c 0,0 -3.101,2.4 -2.601,7.8 0.101,1.1 1.401,30.2 6.801,51.8 1.7,6.4 3.7,12.1 6.2,17.1 z"
     id="path5310"
     inkscape:connector-curvature="0"
     style="fill:none;stroke:#00ff00;stroke-miterlimit:10" /><g
     id="g5312"
     transform="translate(-17.025,-88.137352)"
     style="stroke:#00ff00;fill:none"><path
       d="m 593.699,173.3 c 14.801,2.6 29.601,5.5 44.4,8.5 14.799,3 29.5,6.2 44.2,9.6 14.7,3.4 29.3,7.1 43.8,11.3 7.2,2.1 14.4,4.4 21.5,7 3.5,1.3 7,2.7 10.5,4.2 3.4,1.6 6.8,3.3 9.9,5.5 -3.101,-2.2 -6.5,-3.9 -9.9,-5.4 -3.4,-1.5 -7,-2.9 -10.5,-4.2 -7.1,-2.5 -14.3,-4.8 -21.5,-6.8 -14.5,-4.1 -29.1,-7.7 -43.8,-11.1 -14.7,-3.3 -29.4,-6.4 -44.2,-9.3 -14.8,-2.9 -29.6,-5.7 -44.4,-8.3 l 0,-1 z"
       id="path5314"
       inkscape:connector-curvature="0"
       style="stroke:#00ff00;fill:none" /></g><path
     stroke-miterlimit="2.4142"
     d="m 556.275,55.362648 c 0,0 128,-1.2 178.3,9 l 16.5,-0.6"
     id="path5316"
     inkscape:connector-curvature="0"
     style="fill:none;stroke:#00ff00;stroke-width:0.5;stroke-linejoin:round;stroke-miterlimit:2.41420007" /><path
     stroke-miterlimit="2.4142"
     d="m 18.975,90.462648 c 0,0 13.399,-5.3 35.8,-5.9 22.3,-0.6 43.9,-0.6 43.9,-0.6"
     id="path5318"
     inkscape:connector-curvature="0"
     style="fill:none;stroke:#00ff00;stroke-width:0.5;stroke-linejoin:round;stroke-miterlimit:2.41420007" /><path
     stroke-miterlimit="2.4142"
     d="m 767.575,143.96265 c 0,0 1.4,16.7 5.3,19 3.9,2.4 3.9,1.7 3.9,1.7"
     id="path5320"
     inkscape:connector-curvature="0"
     style="fill:none;stroke:#00ff00;stroke-linejoin:round;stroke-miterlimit:2.41420007" /><path
     stroke-miterlimit="2.4142"
     d="m 361.775,26.762648 0,3 c 0,0 -4.9,3.6 -4.9,17.9 0,0 -12.7,29.9 -13.1,42.3"
     id="path5322"
     inkscape:connector-curvature="0"
     style="fill:none;stroke:#00ff00;stroke-width:0.5;stroke-linejoin:round;stroke-miterlimit:2.41420007" /><g
     id="g5324"
     transform="translate(-17.025,-88.137352)"
     style="stroke:#00ff00;fill:none"><path
       d="m 593.6,401.8 c 14.8,-2.5 29.7,-5.3 44.4,-8.2 14.8,-2.899 29.5,-6 44.199,-9.3 C 696.9,381 711.5,377.4 726,373.2 c 7.199,-2.101 14.399,-4.3 21.5,-6.9 3.5,-1.3 7.1,-2.6 10.5,-4.2 3.399,-1.6 6.8,-3.199 9.899,-5.399 -3,2.2 -6.399,3.899 -9.899,5.5 -3.4,1.6 -6.9,2.899 -10.5,4.3 -7.101,2.6 -14.301,4.9 -21.5,7 -14.5,4.2 -29.101,7.9 -43.801,11.3 C 667.5,388.2 652.8,391.4 638,394.4 c -14.801,3 -29.601,5.8 -44.4,8.5 l 0,-1.1 z"
       id="path5326"
       inkscape:connector-curvature="0"
       style="stroke:#00ff00;fill:none" /></g><path
     stroke-miterlimit="2.4142"
     d="m 556.275,344.36265 c 0,0 128,1.2 178.3,-9 l 16.5,0.6"
     id="path5328"
     inkscape:connector-curvature="0"
     style="fill:none;stroke:#00ff00;stroke-width:0.5;stroke-linejoin:round;stroke-miterlimit:2.41420007" /><path
     stroke-miterlimit="2.4142"
     d="m 120.975,46.262648 c -7,0.7 -14.101,1.5 -21.101,2.3 -33.199,4.1 -61.899,7.2 -71.699,23.3"
     id="path5330"
     inkscape:connector-curvature="0"
     style="fill:none;stroke:#00ff00;stroke-width:0.25;stroke-linejoin:round;stroke-miterlimit:2.41420007" /><path
     stroke-miterlimit="2.4142"
     d="m 490.275,37.462648 c -101.9,-0.6 -274.7,2.7 -287.2,3.7 -5.6,0.4 -28.6,1 -56.399,2.9"
     id="path5332"
     inkscape:connector-curvature="0"
     style="fill:none;stroke:#00ff00;stroke-width:0.25;stroke-linejoin:round;stroke-miterlimit:2.41420007" /><path
     stroke-miterlimit="2.4142"
     d="m 506.275,362.06265 c 13.7,-0.101 25.5,-0.4 34.899,-0.7 77.101,-2.7 174.5,5.7 199.301,-33.4 24.699,-39.1 22.899,-128 22.899,-128 0,0 1.8,-89.1 -22.899,-128.200002 -24.7,-39.1 -122.2,-30.5 -199.301,-33.4 -9.5,-0.4 -21.699,-0.6 -35.6,-0.7"
     id="path5334"
     inkscape:connector-curvature="0"
     style="fill:none;stroke:#00ff00;stroke-width:0.25;stroke-linejoin:round;stroke-miterlimit:2.41420007" /><path
     stroke-miterlimit="2.4142"
     d="m 28.175,327.86265 c 9.8,16.1 38.5,19.3 71.699,23.5 44.9,5.6 94.601,6.6 103.2,7.4 12.601,0.899 186.8,4.199 288.6,3.6"
     id="path5336"
     inkscape:connector-curvature="0"
     style="fill:none;stroke:#00ff00;stroke-width:0.25;stroke-linejoin:round;stroke-miterlimit:2.41420007" /><path
     stroke-miterlimit="2.4142"
     d="m 18.975,309.46265 c 0,0 13.399,5.101 35.8,5.9 22.3,0.6 43.9,0.6 43.9,0.6"
     id="path5338"
     inkscape:connector-curvature="0"
     style="fill:none;stroke:#00ff00;stroke-width:0.5;stroke-linejoin:round;stroke-miterlimit:2.41420007" /><path
     stroke-miterlimit="2.4142"
     d="m 767.575,255.86265 c 0,0 1.4,-16.8 5.3,-19.1 3.9,-2.301 3.9,-1.7 3.9,-1.7"
     id="path5340"
     inkscape:connector-curvature="0"
     style="fill:none;stroke:#00ff00;stroke-linejoin:round;stroke-miterlimit:2.41420007" /><path
     stroke-miterlimit="2.4142"
     d="m 361.775,373.06265 0,-3 c 0,0 -4.9,-3.8 -4.9,-18.101 0,0 -12.7,-29.899 -13.1,-42.3"
     id="path5342"
     inkscape:connector-curvature="0"
     style="fill:none;stroke:#00ff00;stroke-width:0.5;stroke-linejoin:round;stroke-miterlimit:2.41420007" /><path
     stroke-miterlimit="2.4142"
     d="m 775.275,235.56265 c 0,0 1,-17.2 1,-34.8 l 0,-2 c 0,-17.5 -1,-34.601 -1,-34.601"
     id="path5344"
     inkscape:connector-curvature="0"
     style="fill:none;stroke:#00ff00;stroke-width:0.25;stroke-linejoin:round;stroke-miterlimit:2.41420007" /><line
     stroke-miterlimit="2.4142"
     x1="516.97498"
     y1="27.862648"
     x2="519.97498"
     y2="47.862648"
     id="line5346"
     style="fill:none;stroke:#00ff00;stroke-width:0.25;stroke-linejoin:round;stroke-miterlimit:2.41420007" /><line
     stroke-miterlimit="2.4142"
     x1="519.97498"
     y1="352.86264"
     x2="520.97498"
     y2="371.86264"
     id="line5348"
     style="fill:none;stroke:#00ff00;stroke-width:0.25;stroke-linejoin:round;stroke-miterlimit:2.41420007" /><polyline
     stroke-miterlimit="10"
     points="223,120 224,129 232,138 "
     id="polyline5350"
     style="fill:none;stroke:#00ff00;stroke-width:0.25;stroke-miterlimit:10"
     transform="translate(-17.025,-88.137352)" /><polyline
     stroke-miterlimit="10"
     points="221,458 220.1,446.8 232,436 "
     id="polyline5352"
     style="fill:none;stroke:#00ff00;stroke-width:0.25;stroke-miterlimit:10"
     transform="translate(-17.025,-88.137352)" /></svg>